<svg t="1753665200255" class="icon" viewBox="0 0 1024 1024" version="1.1" xmlns="http://www.w3.org/2000/svg" p-id="7085" width="200" height="200"><path d="M0 0m320 0l384 0q320 0 320 320l0 384q0 320-320 320l-384 0q-320 0-320-320l0-384q0-320 320-320Z" fill="#4D4D4D" p-id="7086"></path><path d="M735.2 400a16.8 16.8 0 0 0 16.8-16.8V232a24 24 0 0 0-24-24H356.16a24 24 0 0 0-18.08 8l-60.24 69.2a24 24 0 0 0-5.84 16v86.96a16.8 16.8 0 0 0 16.8 16.8H304v36.16h-15.2a16.8 16.8 0 0 0-16.8 16.8V744a24 24 0 0 0 24 24h432a24 24 0 0 0 24-24V504.8a16.8 16.8 0 0 0-16.8-16.8h-16V400zM704 520h16v216H304V473.12h14.88A16.8 16.8 0 0 0 336 456v-66.24a16.8 16.8 0 0 0-16.8-16.8H304V304l56-64h24v128a8 8 0 0 0 16 0V240h32v128a8 8 0 0 0 16 0V240h32v128a8 8 0 0 0 16 0V240h32v128a8 8 0 0 0 16 0V240h32v128a8 8 0 0 0 16 0V240h32v128a8 8 0 0 0 16 0V240h80v128h-16a16.8 16.8 0 0 0-16.8 16.8v118.4A16.8 16.8 0 0 0 704 520z" fill="#FFFFFF" p-id="7087"></path><path d="M658.4 524H373.6a9.6 9.6 0 0 0-9.6 9.6v156.8a9.6 9.6 0 0 0 9.6 9.6h284.8a9.6 9.6 0 0 0 9.6-9.6V533.6a9.6 9.6 0 0 0-9.6-9.6z m-6.4 16V584h-272v-44z m0 60v32h-272v-32z m-272 84V648h272v36z" fill="#FFFFFF" p-id="7088"></path></svg>