<svg t="1752809216117" class="icon" viewBox="0 0 1024 1024" version="1.1" xmlns="http://www.w3.org/2000/svg" p-id="5373" width="200" height="200"><path d="M870.4 102.4a51.2 51.2 0 0 1 51.2 51.2v716.8a51.2 51.2 0 0 1-51.2 51.2H153.6l-5.2736-0.256A51.2 51.2 0 0 1 102.4 870.4V153.6a51.2 51.2 0 0 1 45.9264-50.944L153.6 102.4h716.8zM153.6 870.4h716.8V153.6H153.6v716.8z"  p-id="5374"></path><path d="M450.56 358.4h153.6l10.24-102.4h51.2l-10.24 102.4H768v51.2h-117.76l-20.48 204.8H768v51.2h-143.36l-10.24 102.4h-51.2l10.24-102.4h-153.6L409.6 768H358.4l10.24-102.4H256v-51.2h117.76l20.48-204.8H256V358.4h143.36L409.6 256h51.2l-10.24 102.4z m-25.6 256h153.6l20.48-204.8h-153.6l-20.48 204.8z"  p-id="5375"></path></svg>
