<svg t="1752822060947" class="icon" viewBox="0 0 1024 1024" version="1.1" xmlns="http://www.w3.org/2000/svg" p-id="16494" width="200" height="200"><path d="M201.803852 28.330667a63.29837 63.29837 0 0 0-63.279408 63.279407v834.996148a63.29837 63.29837 0 0 0 63.279408 63.279408h700.207407V28.330667H201.803852z m0 0" fill="#72B6D3" p-id="16495"></path><path d="M265.083259 28.330667h-63.279407a63.29837 63.29837 0 0 0-63.279408 63.279407v834.996148a63.29837 63.29837 0 0 0 63.279408 63.279408h63.279407V28.330667z m0 0" fill="#090C10" p-id="16496"></path><path d="M194.408296 866.607407h705.137778v119.99763H194.408296c-29.582222 0-54.234074-27.117037-54.234074-59.998815-0.018963-32.862815 23.817481-59.998815 54.234074-59.998815z m0 0" fill="#FFFFFF" p-id="16497"></path><path d="M902.011259 998.930963H201.803852c-39.442963 0-71.49037-32.047407-71.490371-71.49037V91.629037c0-39.442963 32.047407-71.509333 71.490371-71.509333h700.207407c4.93037 0 8.210963 3.280593 8.210963 8.210963v962.37037c0 4.114963-4.114963 8.229926-8.210963 8.229926zM201.803852 36.560593a55.068444 55.068444 0 0 0-55.068445 55.068444v834.996148c0 30.416593 24.651852 55.068444 55.068445 55.068445h691.996444V36.560593H201.803852z m0 0" fill="#6A576D" p-id="16498"></path><path d="M137.690074 934.836148c-4.93037 0-8.210963-3.280593-8.210963-8.210963V91.629037c0-39.442963 32.047407-71.509333 71.509333-71.509333h64.113778c4.93037 0 8.210963 3.280593 8.210963 8.210963v834.996148c0 4.93037-3.280593 8.210963-8.210963 8.210963h-63.279407a55.068444 55.068444 0 0 0-55.068445 55.068444c-0.83437 4.93037-4.133926 8.229926-9.064296 8.229926z m64.113778-898.275555a55.068444 55.068444 0 0 0-55.068445 55.068444v788.954074c13.141333-15.606519 32.862815-26.30163 55.068445-26.30163h55.068444V36.560593h-55.068444z m0 0" fill="#6A576D" p-id="16499"></path><path d="M261.783704 918.395259h48.488296v96.161185h-48.488296z" fill="#F1ED7B" p-id="16500"></path><path d="M310.272 1022.767407h-48.488296c-4.93037 0-8.210963-3.299556-8.210963-8.229926V918.376296c0-4.93037 3.280593-8.210963 8.210963-8.210963h48.488296c4.93037 0 8.210963 3.280593 8.210963 8.210963v96.161185a8.229926 8.229926 0 0 1-8.210963 8.229926z m-40.25837-16.440888h32.047407v-79.720297h-32.047407v79.720297z m0 0" fill="#6A576D" p-id="16501"></path><path d="M704.758519 461.444741H455.736889a64.170667 64.170667 0 0 1-64.094815-64.094815v-112.602074a64.170667 64.170667 0 0 1 64.094815-64.094815h249.02163a64.18963 64.18963 0 0 1 64.113777 64.094815v112.602074a64.170667 64.170667 0 0 1-64.113777 64.094815z m0 0" fill="#FFFFFF" p-id="16502"></path><path d="M704.758519 469.674667H455.736889a72.438519 72.438519 0 0 1-72.324741-72.324741v-112.602074a72.438519 72.438519 0 0 1 72.324741-72.324741h249.02163a72.438519 72.438519 0 0 1 72.32474 72.324741v112.602074c0 39.442963-32.881778 72.324741-72.32474 72.324741zM455.736889 228.864a55.940741 55.940741 0 0 0-55.883852 55.883852v112.602074a55.940741 55.940741 0 0 0 55.883852 55.883852h249.02163a55.940741 55.940741 0 0 0 55.883851-55.883852v-112.602074a55.940741 55.940741 0 0 0-55.883851-55.883852H455.736889z m446.27437 642.692741H265.083259c-4.93037 0-8.229926-3.280593-8.229926-8.210963s3.299556-8.229926 8.229926-8.229926h636.928c4.93037 0 8.210963 3.299556 8.210963 8.229926a8.248889 8.248889 0 0 1-8.210963 8.210963z m0 0" fill="#6A576D" p-id="16503"></path></svg>
