<svg t="1755239065272" class="icon" viewBox="0 0 1024 1024" version="1.1" xmlns="http://www.w3.org/2000/svg" p-id="3674" width="200" height="200"><path d="M904.533333 627.2H413.866667c-12.8 0-21.333333-8.533333-21.333334-21.333333v-170.666667c0-12.8 8.533333-21.333333 21.333334-21.333333h490.666666c12.8 0 21.333333 8.533333 21.333334 21.333333v170.666667c0 12.8-8.533333 21.333333-21.333334 21.333333z m-469.333333-42.666667h448v-128H435.2v128zM904.533333 930.133333H413.866667c-12.8 0-21.333333-8.533333-21.333334-21.333333v-170.666667c0-12.8 8.533333-21.333333 21.333334-21.333333h490.666666c12.8 0 21.333333 8.533333 21.333334 21.333333v170.666667c0 12.8-8.533333 21.333333-21.333334 21.333333z m-469.333333-42.666666h448v-128H435.2v128z" p-id="3675"></path><path d="M413.866667 844.8H221.866667c-12.8 0-21.333333-8.533333-21.333334-21.333333V320c0-12.8 8.533333-21.333333 21.333334-21.333333s21.333333 8.533333 21.333333 21.333333v486.4h170.666667c12.8 0 21.333333 8.533333 21.333333 21.333333s-8.533333 17.066667-21.333333 17.066667z" p-id="3676"></path><path d="M413.866667 541.866667H221.866667c-12.8 0-21.333333-8.533333-21.333334-21.333334s8.533333-21.333333 21.333334-21.333333h192c12.8 0 21.333333 8.533333 21.333333 21.333333s-8.533333 21.333333-21.333333 21.333334z" p-id="3677"></path><path d="M324.266667 341.333333H119.466667c-12.8 0-21.333333-12.8-21.333334-21.333333V115.2c0-12.8 8.533333-21.333333 21.333334-21.333333h204.8c12.8 0 21.333333 8.533333 21.333333 21.333333v204.8c0 8.533333-12.8 21.333333-21.333333 21.333333zM140.8 298.666667h162.133333V136.533333H140.8V298.666667z" fill="#06CEAE" p-id="3678"></path></svg>