<svg t="1753322764918" class="icon" viewBox="0 0 1024 1024" version="1.1" xmlns="http://www.w3.org/2000/svg" p-id="4451" width="200" height="200"><path d="M884.224 8.704H824.32a38.4 38.4 0 0 0 0 76.8h59.904a64 64 0 0 1 64 63.488v581.12a64 64 0 0 1-64 63.488H139.776a64 64 0 0 1-64-63.488V148.992a64 64 0 0 1 64-63.488h488.448a38.4 38.4 0 0 0 0-76.8H139.776A140.8 140.8 0 0 0 0 148.992v581.12A140.8 140.8 0 0 0 139.776 870.4h333.824v51.2H303.616a38.4 38.4 0 1 0 0 76.8h417.792a38.4 38.4 0 1 0 0-76.8h-171.008v-51.2h333.824A140.8 140.8 0 0 0 1024 730.112V148.992A140.8 140.8 0 0 0 884.224 8.704z" fill="#438CFF" p-id="4452"></path><path d="M782.848 296.448H392.704a38.4 38.4 0 0 0 0 76.8h390.144a38.4 38.4 0 0 0 0-76.8zM241.152 296.448a38.4 38.4 0 1 0 0 76.8h4.096a36.864 36.864 0 0 0 36.352-38.4 39.936 39.936 0 0 0-40.448-38.4zM782.848 501.248H392.704a38.4 38.4 0 0 0 0 76.8h390.144a38.4 38.4 0 0 0 0-76.8zM241.152 501.248a38.4 38.4 0 0 0 0 76.8h4.096a36.864 36.864 0 0 0 36.352-38.4 39.936 39.936 0 0 0-40.448-38.4z" fill="#438CFF" p-id="4453"></path></svg>